<svg width="265" height="68" viewBox="0 0 265 68" fill="none" xmlns="http://www.w3.org/2000/svg">
<path d="M10.5 0H264.5L240 67.5H0L10.5 0Z" fill="#132F3A"/>
<path d="M0.583791 67L10.9282 0.5H263.787L239.65 67H0.583791Z" stroke="#272727" stroke-opacity="0.9"/>
<g clip-path="url(#clip0_1560_27)">
<path d="M53.834 18H58.582V47.311H53.834V18Z" fill="white"/>
<path d="M75.09 38.0211C75.09 42.5621 71.375 42.9751 70.136 42.9751C67.246 42.9751 66.836 40.2921 66.836 38.8471V27.4941H62.09V38.6401C62.0198 39.8529 62.2039 41.067 62.6304 42.2044C63.057 43.3419 63.7166 44.3776 64.567 45.2451C65.3054 45.9521 66.1809 46.5 67.1395 46.855C68.0981 47.2101 69.1193 47.3646 70.14 47.3091C71.9383 47.3964 73.7042 46.8074 75.09 45.6581V47.3091H79.838V27.4941H75.09V38.0211Z" fill="white"/>
<path d="M89.131 20.2715H84.384V27.4955H80.874V32.0365H84.383V47.3115H89.13V32.0375H92.639V27.4965H89.13L89.131 20.2715Z" fill="white"/>
<path d="M107.501 41.3241C106.388 42.2233 105.009 42.7311 103.579 42.7691C102.825 42.7835 102.077 42.6422 101.381 42.3541C100.684 42.066 100.055 41.6372 99.5317 41.0947C99.0086 40.5522 98.6031 39.9075 98.3405 39.2011C98.078 38.4946 97.9641 37.7416 98.0059 36.9891C97.968 36.2473 98.0862 35.5057 98.3529 34.8124C98.6195 34.1191 99.0287 33.4894 99.554 32.9642C100.079 32.4389 100.709 32.0298 101.402 31.7631C102.096 31.4964 102.837 31.3782 103.579 31.4161C104.296 31.387 105.011 31.4997 105.684 31.7476C106.357 31.9956 106.974 32.374 107.501 32.8611L108.12 33.4801L111.42 30.3801L110.594 29.7611C108.661 28.0386 106.165 27.084 103.576 27.0781C100.893 27.0781 98.3207 28.1438 96.4239 30.0406C94.5271 31.9374 93.4614 34.5101 93.4614 37.1926C93.4614 39.8752 94.5271 42.4478 96.4239 44.3447C98.3207 46.2415 100.893 47.3071 103.576 47.3071C106.165 47.3012 108.661 46.3466 110.594 44.6241L111.42 44.0051L108.12 40.7051L107.501 41.3241Z" fill="white"/>
<path d="M128.143 29.146C127.487 28.4448 126.684 27.8964 125.793 27.5397C124.901 27.183 123.942 27.0268 122.983 27.082C122.154 27.0397 121.325 27.164 120.545 27.4476C119.765 27.7312 119.05 28.1682 118.442 28.733V18H113.694V47.311H118.442V36.371C118.442 31.83 121.542 31.417 122.777 31.417C125.667 31.417 125.46 34.1 125.46 35.545V47.1H130.208V35.752C130.207 33.068 129.588 30.591 128.143 29.146Z" fill="white"/>
<path d="M103.374 40.5005C105.198 40.5005 106.677 39.0217 106.677 37.1975C106.677 35.3733 105.198 33.8945 103.374 33.8945C101.55 33.8945 100.071 35.3733 100.071 37.1975C100.071 39.0217 101.55 40.5005 103.374 40.5005Z" fill="#EF4335"/>
<path d="M47.229 40.0863C45.3972 41.838 42.9514 42.8014 40.417 42.7693C35.257 42.7693 31.541 38.6413 31.541 33.0693C31.541 27.4973 35.256 23.3693 40.623 23.3693C43.186 23.3961 45.6346 24.4349 47.435 26.2593L48.054 26.8783L51.154 23.7783L50.531 23.1563C49.2356 21.8458 47.6925 20.806 45.9915 20.0973C44.2906 19.3887 42.4657 19.0253 40.623 19.0283C32.78 18.8253 27 25.0183 27 33.0683C27 41.1183 32.78 47.3113 40.417 47.3113C42.2625 47.334 44.0933 46.9795 45.797 46.2697C47.5007 45.5599 49.0415 44.5096 50.325 43.1833L50.944 42.5643L47.844 39.4643L47.229 40.0863Z" fill="white"/>
<path fill-rule="evenodd" clip-rule="evenodd" d="M144.713 33.7953C144.652 33.7983 144.594 33.8196 144.546 33.8564C144.498 33.8932 144.462 33.9437 144.443 34.0013L142.943 38.5013H138.143C138.081 38.5024 138.02 38.5229 137.97 38.56C137.92 38.597 137.882 38.6488 137.863 38.7081C137.844 38.7674 137.843 38.8313 137.862 38.8908C137.88 38.9504 137.917 39.0026 137.967 39.0403L141.867 41.8933L140.367 46.5503C140.348 46.6103 140.349 46.6746 140.369 46.7342C140.389 46.7938 140.427 46.8457 140.478 46.8825C140.529 46.9192 140.59 46.9391 140.653 46.9393C140.715 46.9394 140.777 46.9198 140.828 46.8833L144.728 44.0303L148.628 46.8833C148.679 46.9198 148.74 46.9394 148.803 46.9393C148.866 46.9391 148.927 46.9192 148.978 46.8825C149.029 46.8457 149.067 46.7938 149.087 46.7342C149.107 46.6746 149.108 46.6103 149.089 46.5503L147.589 41.8933L151.489 39.0403C151.539 39.0026 151.575 38.9504 151.594 38.8908C151.613 38.8313 151.612 38.7674 151.593 38.7081C151.573 38.6488 151.536 38.597 151.486 38.56C151.436 38.5229 151.375 38.5024 151.313 38.5013H146.513L145.013 34.0013C144.992 33.9388 144.952 33.8848 144.898 33.8476C144.843 33.8104 144.779 33.792 144.713 33.7953Z" fill="#FF3B34"/>
<path fill-rule="evenodd" clip-rule="evenodd" d="M163.075 33.7953C163.014 33.7983 162.956 33.8196 162.908 33.8564C162.86 33.8932 162.824 33.9437 162.805 34.0013L161.305 38.5013H156.505C156.442 38.5024 156.382 38.5229 156.332 38.56C156.282 38.597 156.244 38.6488 156.225 38.7081C156.205 38.7674 156.205 38.8313 156.224 38.8908C156.242 38.9504 156.279 39.0026 156.329 39.0403L160.229 41.8933L158.729 46.5503C158.71 46.6103 158.711 46.6746 158.731 46.7342C158.751 46.7938 158.789 46.8457 158.84 46.8825C158.89 46.9192 158.952 46.9391 159.014 46.9393C159.077 46.9394 159.139 46.9198 159.19 46.8833L163.09 44.0303L166.99 46.8833C167.041 46.9198 167.102 46.9394 167.165 46.9393C167.228 46.9391 167.289 46.9192 167.34 46.8825C167.391 46.8457 167.429 46.7938 167.449 46.7342C167.469 46.6746 167.469 46.6103 167.451 46.5503L165.951 41.8933L169.851 39.0403C169.9 39.0026 169.937 38.9504 169.956 38.8908C169.974 38.8313 169.974 38.7674 169.955 38.7081C169.935 38.6488 169.898 38.597 169.848 38.56C169.798 38.5229 169.737 38.5024 169.675 38.5013H164.875L163.375 34.0013C163.354 33.9388 163.314 33.8848 163.26 33.8476C163.205 33.8104 163.14 33.792 163.075 33.7953Z" fill="#FF3B34"/>
<path fill-rule="evenodd" clip-rule="evenodd" d="M181.339 33.7953C181.278 33.7983 181.22 33.8196 181.172 33.8564C181.124 33.8932 181.088 33.9437 181.069 34.0013L179.569 38.5013H174.769C174.706 38.5024 174.646 38.5229 174.596 38.56C174.546 38.597 174.508 38.6488 174.489 38.7081C174.47 38.7674 174.469 38.8313 174.488 38.8908C174.506 38.9504 174.543 39.0026 174.593 39.0403L178.493 41.8933L176.993 46.5503C176.974 46.6103 176.975 46.6746 176.995 46.7342C177.015 46.7938 177.053 46.8457 177.104 46.8825C177.155 46.9192 177.216 46.9391 177.279 46.9393C177.341 46.9394 177.403 46.9198 177.454 46.8833L181.354 44.0303L185.254 46.8833C185.305 46.9198 185.366 46.9394 185.429 46.9393C185.492 46.9391 185.553 46.9192 185.604 46.8825C185.655 46.8457 185.693 46.7938 185.713 46.7342C185.733 46.6746 185.733 46.6103 185.715 46.5503L184.215 41.8933L188.115 39.0403C188.165 39.0026 188.201 38.9504 188.22 38.8908C188.239 38.8313 188.238 38.7674 188.219 38.7081C188.199 38.6488 188.162 38.597 188.112 38.56C188.062 38.5229 188.001 38.5024 187.939 38.5013H183.139L181.639 34.0013C181.618 33.9388 181.578 33.8848 181.524 33.8476C181.469 33.8104 181.405 33.792 181.339 33.7953Z" fill="#FF3B34"/>
<path fill-rule="evenodd" clip-rule="evenodd" d="M199.696 33.7953C199.635 33.7983 199.577 33.8196 199.529 33.8564C199.481 33.8932 199.445 33.9437 199.426 34.0013L197.926 38.5013H193.126C193.063 38.5024 193.003 38.5229 192.953 38.56C192.903 38.597 192.865 38.6488 192.846 38.7081C192.827 38.7674 192.826 38.8313 192.845 38.8908C192.863 38.9504 192.9 39.0026 192.95 39.0403L196.85 41.8933L195.35 46.5503C195.331 46.6103 195.332 46.6746 195.352 46.7342C195.372 46.7938 195.41 46.8457 195.461 46.8825C195.512 46.9192 195.573 46.9391 195.636 46.9393C195.698 46.9394 195.76 46.9198 195.811 46.8833L199.711 44.0303L203.611 46.8833C203.662 46.9198 203.723 46.9394 203.786 46.9393C203.849 46.9391 203.91 46.9192 203.961 46.8825C204.012 46.8457 204.05 46.7938 204.07 46.7342C204.09 46.6746 204.09 46.6103 204.072 46.5503L202.572 41.8933L206.472 39.0403C206.521 39.0026 206.558 38.9504 206.577 38.8908C206.595 38.8313 206.595 38.7674 206.576 38.7081C206.556 38.6488 206.519 38.597 206.469 38.56C206.419 38.5229 206.358 38.5024 206.296 38.5013H201.496L199.996 34.0013C199.975 33.9388 199.935 33.8848 199.881 33.8476C199.826 33.8104 199.761 33.792 199.696 33.7953Z" fill="#FF3B34"/>
<path fill-rule="evenodd" clip-rule="evenodd" d="M218.059 33.7953C217.998 33.7983 217.94 33.8196 217.892 33.8564C217.844 33.8932 217.808 33.9437 217.789 34.0013L216.289 38.5013H211.489C211.426 38.5024 211.366 38.5229 211.316 38.56C211.266 38.597 211.228 38.6488 211.209 38.7081C211.19 38.7674 211.189 38.8313 211.208 38.8908C211.226 38.9504 211.263 39.0026 211.313 39.0403L215.213 41.8933L213.713 46.5503C213.694 46.6103 213.695 46.6746 213.715 46.7342C213.735 46.7938 213.773 46.8457 213.824 46.8825C213.875 46.9192 213.936 46.9391 213.999 46.9393C214.061 46.9394 214.123 46.9198 214.174 46.8833L218.074 44.0303L221.974 46.8833C222.025 46.9198 222.086 46.9394 222.149 46.9393C222.212 46.9391 222.273 46.9192 222.324 46.8825C222.375 46.8457 222.413 46.7938 222.433 46.7342C222.453 46.6746 222.453 46.6103 222.435 46.5503L220.935 41.8933L224.835 39.0403C224.885 39.0026 224.921 38.9504 224.94 38.8908C224.959 38.8313 224.958 38.7674 224.939 38.7081C224.919 38.6488 224.882 38.597 224.832 38.56C224.782 38.5229 224.721 38.5024 224.659 38.5013H219.859L218.359 34.0013C218.338 33.9388 218.298 33.8848 218.244 33.8476C218.189 33.8104 218.124 33.792 218.059 33.7953Z" fill="#FF3B34"/>
<path d="M162.335 29.7865C160.734 28.5569 159.794 26.7821 159.794 24.7405C159.794 22.6873 160.734 20.9241 162.335 19.6945L163.066 20.4601C161.848 21.7129 161.233 22.9773 161.233 24.7405C161.233 26.4921 161.848 27.7565 163.066 29.0093L162.335 29.7865ZM164.04 27.8145V26.6313L166.975 24.2881C167.984 23.4761 168.344 22.8729 168.344 22.2233C168.344 21.4693 167.706 21.0053 166.986 21.0053C166.151 21.0053 165.548 21.4345 164.968 22.1305L164.028 21.2605C164.782 20.2745 165.745 19.7061 167.033 19.7061C168.61 19.7061 169.817 20.7153 169.817 22.1885C169.817 23.2441 169.33 24.0909 167.961 25.1465L166.29 26.4921H169.898V27.8145H164.04ZM174.579 27.9537C172.526 27.9537 171.076 26.2485 171.076 23.8241C171.076 21.4113 172.526 19.7061 174.579 19.7061C176.621 19.7061 178.059 21.4113 178.059 23.8241C178.059 26.2485 176.621 27.9537 174.579 27.9537ZM174.579 26.6313C175.751 26.6313 176.586 25.4713 176.586 23.8241C176.586 22.1769 175.751 21.0285 174.579 21.0285C173.396 21.0285 172.561 22.1769 172.561 23.8241C172.561 25.4713 173.396 26.6313 174.579 26.6313ZM189.269 27.8145H187.622L185.743 25.1349H184.2V27.8145H182.75V19.8453H186.218C187.923 19.8453 189.199 20.9357 189.199 22.4901C189.199 23.6965 188.422 24.6245 187.274 24.9841L189.269 27.8145ZM184.2 21.1793V23.8009H186.056C187.042 23.8009 187.726 23.3021 187.726 22.4901C187.726 21.6781 187.042 21.1793 186.056 21.1793H184.2ZM193.259 26.7009C193.816 26.7009 194.477 26.4457 194.813 26.0977L195.706 27.0257C195.184 27.5825 194.14 27.9537 193.27 27.9537C191.554 27.9537 190.138 26.6429 190.138 24.7985C190.138 23.0005 191.484 21.6781 193.189 21.6781C195.045 21.6781 196.124 23.0817 196.124 25.2973H191.6C191.774 26.1209 192.4 26.7009 193.259 26.7009ZM193.247 22.9309C192.458 22.9309 191.82 23.4297 191.612 24.2185H194.767C194.604 23.4645 194.094 22.9309 193.247 22.9309ZM199.357 27.8145L196.782 21.8173H198.279L200.019 26.1789L201.724 21.8173H203.232L200.691 27.8145H199.357ZM204.935 20.9125C204.482 20.9125 204.123 20.5297 204.123 20.1005C204.123 19.6713 204.482 19.3001 204.935 19.3001C205.375 19.3001 205.735 19.6713 205.735 20.1005C205.735 20.5297 205.375 20.9125 204.935 20.9125ZM204.215 27.8145V21.8173H205.631V27.8145H204.215ZM209.99 26.7009C210.547 26.7009 211.208 26.4457 211.545 26.0977L212.438 27.0257C211.916 27.5825 210.872 27.9537 210.002 27.9537C208.285 27.9537 206.87 26.6429 206.87 24.7985C206.87 23.0005 208.216 21.6781 209.921 21.6781C211.777 21.6781 212.856 23.0817 212.856 25.2973H208.332C208.506 26.1209 209.132 26.7009 209.99 26.7009ZM209.979 22.9309C209.19 22.9309 208.552 23.4297 208.343 24.2185H211.498C211.336 23.4645 210.826 22.9309 209.979 22.9309ZM215.319 27.8145L213.289 21.8173H214.704L215.957 25.9121L217.291 21.8173H218.474L219.82 25.9121L221.061 21.8173H222.476L220.458 27.8145H219.17L217.883 23.7081L216.607 27.8145H215.319ZM225.734 27.9537C224.818 27.9537 223.832 27.6289 223.113 27.0489L223.751 26.0629C224.331 26.4805 225.003 26.7589 225.757 26.7589C226.326 26.7589 226.72 26.5153 226.72 26.1441C226.72 25.6801 226.198 25.5293 225.514 25.3437C224.215 25.0073 223.391 24.6361 223.379 23.5689C223.379 22.4437 224.307 21.6781 225.641 21.6781C226.465 21.6781 227.289 21.9681 227.938 22.3973L227.347 23.4297C226.778 23.0701 226.163 22.8845 225.641 22.8845C225.143 22.8845 224.76 23.0817 224.76 23.4181C224.76 23.8009 225.073 23.9169 225.989 24.1837C226.999 24.4621 228.089 24.8101 228.089 26.0629C228.089 27.2113 227.138 27.9537 225.734 27.9537ZM229.713 29.7865L228.982 29.0093C230.212 27.7565 230.827 26.4921 230.827 24.7405C230.827 22.9773 230.212 21.7129 228.982 20.4601L229.713 19.6945C231.325 20.9241 232.253 22.6873 232.253 24.7405C232.253 26.7821 231.325 28.5569 229.713 29.7865Z" fill="white"/>
<path d="M141.378 28.156C139.998 28.156 138.954 27.652 138.186 26.884L139.23 25.636C139.842 26.224 140.598 26.608 141.39 26.608C142.314 26.608 142.89 26.056 142.89 25.348C142.89 24.628 142.302 24.148 141.402 24.148C140.778 24.148 140.25 24.352 139.806 24.688L138.618 24.208L138.738 19.756H144.198V21.352H140.37L140.322 23.176C140.73 22.888 141.258 22.672 141.93 22.672C143.394 22.672 144.654 23.608 144.654 25.288C144.654 27.04 143.346 28.156 141.378 28.156ZM146.936 28.144C146.312 28.144 145.82 27.64 145.82 27.028C145.82 26.464 146.312 25.96 146.936 25.96C147.524 25.96 148.004 26.464 148.004 27.028C148.004 27.64 147.524 28.144 146.936 28.144ZM152.888 28.144C150.716 28.144 149.192 26.38 149.192 23.872C149.192 21.376 150.716 19.612 152.888 19.612C155.06 19.612 156.596 21.376 156.596 23.872C156.596 26.38 155.06 28.144 152.888 28.144ZM152.888 26.536C154.004 26.536 154.772 25.42 154.772 23.872C154.772 22.324 154.004 21.22 152.888 21.22C151.784 21.22 151.004 22.324 151.004 23.872C151.004 25.42 151.784 26.536 152.888 26.536Z" fill="white"/>
</g>
<defs>
<clipPath id="clip0_1560_27">
<rect width="203.168" height="35.946" fill="white" transform="translate(27 15)"/>
</clipPath>
</defs>
</svg>
