<svg width="265" height="68" viewBox="0 0 265 68" fill="none" xmlns="http://www.w3.org/2000/svg">
<path d="M0.583791 67L10.9282 0.5H263.787L239.65 67H0.583791Z" fill="#6ACF41" stroke="#6ACF41"/>
<rect width="212" height="41" transform="translate(22 12.5)" fill="#6ACF41"/>
<g clip-path="url(#clip0_533_481)">
<mask id="mask0_533_481" style="mask-type:luminance" maskUnits="userSpaceOnUse" x="22" y="20" width="109" height="30">
<path d="M22 20.5039H130.521V49.5475H22V20.5039Z" fill="white"/>
</mask>
<g mask="url(#mask0_533_481)">
<path d="M51.7007 38.8421C49.9301 38.8421 48.2737 38.1783 46.7744 37.0857L47.1456 35.5644L47.1599 35.4952C47.4883 33.8633 48.5164 31.111 51.7007 31.111C54.0853 31.111 56.0272 32.8536 56.0272 34.9835C56.0129 37.1134 54.071 38.856 51.7007 38.856V38.8421ZM51.7007 27.1971C47.6454 27.1971 44.4897 29.5482 43.2189 33.4345C41.35 30.8513 39.9005 28.0062 38.9209 24.998H34.5515V35.191C34.5515 37.1963 32.7238 38.8283 30.4819 38.8283C28.2401 38.8283 26.4124 37.1963 26.4124 35.191V25.0119H22.043V35.191C22.0287 39.3539 25.8127 42.7838 30.4677 42.7838C35.1226 42.7838 38.9209 39.3539 38.9209 35.1771V33.4898C39.7776 35.0803 40.8057 36.6708 42.0623 38.1091L39.3921 49.3808H43.8614L45.8034 41.1933C47.582 42.2358 49.6217 42.786 51.7007 42.7838C56.4842 42.7838 60.3823 39.2709 60.3823 34.9835C60.3823 30.6961 56.4842 27.2109 51.7007 27.2109V27.1971Z" fill="white"/>
<path d="M73.7333 27.6262L76.5463 37.8191L79.6591 27.6262H83.3574L78.5739 42.3554H74.8756L71.9484 32.121L69.0212 42.3554H65.3229L60.5537 27.6262H64.252L67.3506 37.8053L70.1778 27.6262H73.7333ZM92.2104 27.1974C87.4127 27.1974 83.5002 30.6827 83.5002 34.9839C83.5002 39.2851 87.4127 42.7703 92.2104 42.7703C97.0225 42.7703 100.921 39.2851 100.921 34.9839C100.921 30.6827 97.0225 27.1974 92.2104 27.1974ZM92.2104 39.5755C89.3832 39.5755 87.0985 37.5287 87.0985 34.9839C87.0985 32.4529 89.3832 30.4199 92.2104 30.4199C95.0377 30.4199 97.3223 32.4529 97.3223 34.9839C97.3223 37.5148 95.0377 39.5755 92.2104 39.5755ZM111.487 30.9316C109.003 30.9316 106.989 32.7295 106.989 34.9424V42.3416H103.277V27.6262H106.989V29.9082C106.989 29.9082 108.589 27.64 111.844 27.64H112.987V30.9454H111.487V30.9316ZM123.996 34.4168C125.305 33.7862 126.41 32.8194 127.191 31.6219C127.971 30.4244 128.397 29.0422 128.422 27.6262H124.71C124.71 30.0741 122.482 32.0657 119.741 32.0657H119.241V20.5312H115.528V42.3554H119.241V35.4264H119.683C120.055 35.4264 120.54 35.6339 120.74 35.8967L126.023 42.3554H130.521L124.01 34.4307L123.996 34.4168Z" fill="#132F3A"/>
</g>
</g>
<path d="M139.264 21.1081C141.676 21.1081 142.768 22.8361 142.768 25.2361C142.768 27.8041 141.268 29.6401 138.988 29.6401C137.956 29.6401 137.128 29.2921 136.456 28.7521L137.296 27.4081C137.8 27.8281 138.292 28.0801 138.976 28.0801C140.044 28.0801 140.776 27.1921 140.932 25.8001C140.416 26.2921 139.672 26.5801 138.892 26.5801C137.368 26.5801 136.108 25.5961 136.108 23.9641C136.108 22.2721 137.464 21.1081 139.264 21.1081ZM139.408 25.1401C140.092 25.1401 140.644 24.7681 140.884 24.1801C140.728 23.1721 140.284 22.6081 139.36 22.6081C138.484 22.6081 137.932 23.2201 137.932 23.8801C137.932 24.6721 138.604 25.1401 139.408 25.1401ZM147.023 29.6401C145.199 29.6401 143.711 28.7761 143.711 27.2881C143.711 26.3161 144.383 25.5961 145.331 25.2361C144.515 24.8881 143.927 24.2881 143.927 23.3521C143.927 21.9001 145.415 21.1081 147.023 21.1081C148.667 21.1081 150.131 21.9361 150.131 23.3521C150.131 24.2761 149.543 24.8761 148.715 25.2361C149.687 25.6201 150.335 26.3401 150.335 27.2881C150.335 28.7881 148.835 29.6401 147.023 29.6401ZM147.023 24.6241C147.671 24.5761 148.367 24.1921 148.367 23.5801C148.367 23.0161 147.815 22.5961 147.023 22.5961C146.231 22.5961 145.691 23.0161 145.691 23.5801C145.691 24.2161 146.375 24.5761 147.023 24.6241ZM147.023 28.1521C147.899 28.1521 148.547 27.7201 148.547 27.0961C148.547 26.4481 147.731 26.0401 147.023 26.0161C146.315 26.0401 145.511 26.4481 145.511 27.0961C145.511 27.7201 146.147 28.1521 147.023 28.1521ZM153.264 25.3921C152.04 25.3921 151.212 24.4681 151.212 23.2921C151.212 22.1041 152.04 21.1681 153.276 21.1681C154.524 21.1681 155.328 22.1161 155.328 23.2801C155.328 24.4681 154.488 25.3921 153.264 25.3921ZM152.292 29.4961L158.028 21.2521H159.3L153.564 29.4961H152.292ZM153.276 24.3601C153.78 24.3601 154.152 23.9401 154.152 23.2801C154.152 22.6441 153.78 22.2121 153.264 22.2121C152.76 22.2121 152.4 22.6321 152.4 23.2801C152.4 23.9281 152.784 24.3601 153.276 24.3601ZM158.304 29.6281C157.068 29.6281 156.24 28.6921 156.24 27.5161C156.24 26.3401 157.08 25.4041 158.304 25.4041C159.54 25.4041 160.356 26.3521 160.356 27.5161C160.356 28.7041 159.504 29.6281 158.304 29.6281ZM158.304 28.5841C158.82 28.5841 159.18 28.1641 159.18 27.5161C159.18 26.8681 158.796 26.4361 158.304 26.4361C157.776 26.4361 157.416 26.8561 157.416 27.5161C157.416 28.1521 157.788 28.5841 158.304 28.5841ZM165.806 22.4401C165.266 22.4401 164.846 22.0081 164.846 21.4801C164.846 20.9881 165.266 20.5441 165.806 20.5441C166.322 20.5441 166.742 20.9881 166.742 21.4801C166.742 22.0081 166.322 22.4401 165.806 22.4401ZM164.738 31.6321C164.306 31.6321 163.802 31.5241 163.502 31.3801L163.682 30.0841C163.85 30.1441 164.114 30.1921 164.33 30.1921C164.678 30.1921 164.918 29.9041 164.918 29.4961V23.2921H166.67V29.6761C166.67 30.8161 165.866 31.6321 164.738 31.6321ZM171.248 29.6401C169.4 29.6401 167.852 28.1521 167.852 26.3881C167.852 24.6241 169.4 23.1481 171.248 23.1481C173.084 23.1481 174.62 24.6241 174.62 26.3881C174.62 28.1521 173.084 29.6401 171.248 29.6401ZM171.248 28.1641C172.172 28.1641 172.952 27.3481 172.952 26.3881C172.952 25.4281 172.172 24.6241 171.248 24.6241C170.312 24.6241 169.532 25.4281 169.532 26.3881C169.532 27.3481 170.312 28.1641 171.248 28.1641ZM179.633 23.1481C181.289 23.1481 182.489 24.4921 182.489 26.3881C182.489 28.2961 181.289 29.6401 179.633 29.6401C178.769 29.6401 178.049 29.2681 177.557 28.6201V29.4961H175.805V21.1081H177.557V24.1561C178.049 23.5201 178.769 23.1481 179.633 23.1481ZM179.129 28.1641C180.101 28.1641 180.785 27.4321 180.785 26.3881C180.785 25.3561 180.101 24.6241 179.129 24.6241C178.277 24.6241 177.653 25.2481 177.557 26.1481V26.6281C177.653 27.5401 178.277 28.1641 179.129 28.1641ZM189.407 29.6401C188.411 29.6401 187.355 29.3041 186.611 28.7041L187.367 27.4921C187.919 27.8881 188.615 28.1881 189.443 28.1881C189.911 28.1881 190.247 27.9961 190.247 27.7201C190.247 27.3361 189.791 27.2161 189.155 27.0481C187.883 26.7361 186.899 26.3881 186.887 25.1641C186.875 23.9881 187.847 23.1481 189.311 23.1481C190.199 23.1481 191.075 23.4601 191.759 23.9161L191.051 25.1641C190.487 24.8161 189.839 24.6121 189.311 24.6121C188.879 24.6121 188.579 24.7681 188.579 24.9841C188.579 25.3201 188.831 25.4161 189.671 25.6441C190.739 25.9201 191.927 26.2801 191.927 27.6361C191.927 28.8601 190.931 29.6401 189.407 29.6401ZM197.218 23.2921H198.97V29.4961H197.218V28.7161C196.846 29.2801 196.15 29.6401 195.346 29.6401C194.002 29.6401 193.042 28.6441 193.042 27.2401V23.2921H194.734V26.8681C194.734 27.6361 195.214 28.1641 195.91 28.1641C196.642 28.1641 197.206 27.6361 197.206 26.9641L197.218 27.0001V23.2921ZM203.509 29.6401C201.673 29.6401 200.125 28.1521 200.125 26.3881C200.125 24.6241 201.685 23.1481 203.521 23.1481C204.529 23.1481 205.357 23.5561 205.957 24.2041L204.793 25.2001C204.481 24.8521 203.989 24.6241 203.509 24.6241C202.597 24.6241 201.829 25.4281 201.829 26.3761C201.829 27.3481 202.597 28.1641 203.521 28.1641C204.001 28.1641 204.505 27.9241 204.829 27.5641L205.993 28.5481C205.381 29.2201 204.541 29.6401 203.509 29.6401ZM210.083 29.6401C208.247 29.6401 206.699 28.1521 206.699 26.3881C206.699 24.6241 208.259 23.1481 210.095 23.1481C211.103 23.1481 211.931 23.5561 212.531 24.2041L211.367 25.2001C211.055 24.8521 210.563 24.6241 210.083 24.6241C209.171 24.6241 208.403 25.4281 208.403 26.3761C208.403 27.3481 209.171 28.1641 210.095 28.1641C210.575 28.1641 211.079 27.9241 211.403 27.5641L212.567 28.5481C211.955 29.2201 211.115 29.6401 210.083 29.6401ZM216.55 28.0921C217.042 28.0921 217.642 27.8641 217.978 27.5401L219.094 28.6801C218.542 29.2561 217.474 29.6401 216.562 29.6401C214.714 29.6401 213.274 28.2841 213.274 26.3761C213.274 24.5041 214.654 23.1481 216.466 23.1481C218.41 23.1481 219.55 24.6241 219.55 26.9641H215.074C215.278 27.6361 215.818 28.0921 216.55 28.0921ZM216.538 24.6961C215.878 24.6961 215.326 25.0801 215.098 25.7041H217.87C217.702 25.0921 217.246 24.6961 216.538 24.6961ZM223.063 29.6401C222.067 29.6401 221.011 29.3041 220.267 28.7041L221.023 27.4921C221.575 27.8881 222.271 28.1881 223.099 28.1881C223.567 28.1881 223.903 27.9961 223.903 27.7201C223.903 27.3361 223.447 27.2161 222.811 27.0481C221.539 26.7361 220.555 26.3881 220.543 25.1641C220.531 23.9881 221.503 23.1481 222.967 23.1481C223.855 23.1481 224.731 23.4601 225.415 23.9161L224.707 25.1641C224.143 24.8161 223.495 24.6121 222.967 24.6121C222.535 24.6121 222.235 24.7681 222.235 24.9841C222.235 25.3201 222.487 25.4161 223.327 25.6441C224.395 25.9201 225.583 26.2801 225.583 27.6361C225.583 28.8601 224.587 29.6401 223.063 29.6401ZM229.086 29.6401C228.09 29.6401 227.034 29.3041 226.29 28.7041L227.046 27.4921C227.598 27.8881 228.294 28.1881 229.122 28.1881C229.59 28.1881 229.926 27.9961 229.926 27.7201C229.926 27.3361 229.47 27.2161 228.834 27.0481C227.562 26.7361 226.578 26.3881 226.566 25.1641C226.554 23.9881 227.526 23.1481 228.99 23.1481C229.878 23.1481 230.754 23.4601 231.438 23.9161L230.73 25.1641C230.166 24.8161 229.518 24.6121 228.99 24.6121C228.558 24.6121 228.258 24.7681 228.258 24.9841C228.258 25.3201 228.51 25.4161 229.35 25.6441C230.418 25.9201 231.606 26.2801 231.606 27.6361C231.606 28.8601 230.61 29.6401 229.086 29.6401Z" fill="white"/>
<path d="M151.816 46.5V40.197H149.396V38.943H155.6V40.197H153.18V46.5H151.816ZM159.48 46.632C157.83 46.632 156.433 45.268 156.433 43.651C156.433 42.034 157.83 40.681 159.48 40.681C161.13 40.681 162.527 42.034 162.527 43.651C162.527 45.268 161.13 46.632 159.48 46.632ZM159.48 45.488C160.415 45.488 161.207 44.652 161.207 43.651C161.207 42.661 160.415 41.825 159.48 41.825C158.534 41.825 157.742 42.661 157.742 43.651C157.742 44.652 158.534 45.488 159.48 45.488ZM167.046 40.681C168.553 40.681 169.653 41.913 169.653 43.651C169.653 45.4 168.553 46.632 167.046 46.632C166.199 46.632 165.517 46.247 165.066 45.598V48.392H163.724V40.813H165.066V41.715C165.517 41.066 166.199 40.681 167.046 40.681ZM166.683 45.488C167.64 45.488 168.322 44.718 168.322 43.651C168.322 42.584 167.64 41.825 166.683 41.825C165.737 41.825 165.077 42.584 165.077 43.651C165.077 44.718 165.737 45.488 166.683 45.488ZM180.208 46.5H178.646L176.864 43.959H175.401V46.5H174.026V38.943H177.315C178.932 38.943 180.142 39.977 180.142 41.451C180.142 42.595 179.405 43.475 178.316 43.816L180.208 46.5ZM175.401 40.208V42.694H177.161C178.096 42.694 178.745 42.221 178.745 41.451C178.745 40.681 178.096 40.208 177.161 40.208H175.401ZM183.816 40.681C185.323 40.681 186.258 41.638 186.258 43.079V46.5H184.949V45.818C184.531 46.346 183.816 46.632 183.156 46.632C181.946 46.632 181.033 45.917 181.033 44.817C181.033 43.695 182.078 42.925 183.354 42.925C183.871 42.925 184.432 43.035 184.949 43.233V43.079C184.949 42.419 184.586 41.781 183.552 41.781C183.013 41.781 182.496 41.968 182.012 42.21L181.55 41.275C182.353 40.879 183.101 40.681 183.816 40.681ZM183.453 45.653C184.102 45.653 184.795 45.323 184.949 44.718V44.08C184.531 43.937 184.058 43.86 183.552 43.86C182.881 43.86 182.342 44.234 182.342 44.773C182.342 45.312 182.815 45.653 183.453 45.653ZM190.549 45.279L190.934 46.181C190.615 46.456 190.153 46.632 189.724 46.632C188.778 46.632 188.118 45.95 188.118 44.993V41.924H187.293V40.813H188.118V39.251H189.427V40.813H190.714V41.924H189.427V44.828C189.427 45.213 189.669 45.488 189.988 45.488C190.219 45.488 190.428 45.4 190.549 45.279ZM194.626 45.444C195.154 45.444 195.781 45.202 196.1 44.872L196.947 45.752C196.452 46.28 195.462 46.632 194.637 46.632C193.009 46.632 191.667 45.389 191.667 43.64C191.667 41.935 192.943 40.681 194.56 40.681C196.32 40.681 197.343 42.012 197.343 44.113H193.053C193.218 44.894 193.812 45.444 194.626 45.444ZM194.615 41.869C193.867 41.869 193.262 42.342 193.064 43.09H196.056C195.902 42.375 195.418 41.869 194.615 41.869ZM202.83 38.811H204.172V46.5H202.83V45.62C202.379 46.258 201.697 46.632 200.861 46.632C199.354 46.632 198.254 45.4 198.254 43.651C198.254 41.913 199.354 40.681 200.861 40.681C201.697 40.681 202.379 41.055 202.83 41.693V38.811ZM201.224 45.488C202.17 45.488 202.83 44.718 202.83 43.651C202.83 42.584 202.17 41.825 201.224 41.825C200.267 41.825 199.585 42.584 199.585 43.651C199.585 44.718 200.267 45.488 201.224 45.488ZM208.842 46.5V38.943H212.131C213.748 38.943 214.958 39.977 214.958 41.451C214.958 42.925 213.748 43.959 212.131 43.959H210.217V46.5H208.842ZM210.217 42.694H211.977C212.912 42.694 213.561 42.221 213.561 41.451C213.561 40.681 212.912 40.208 211.977 40.208H210.217V42.694ZM215.995 46.5V38.811H217.337V46.5H215.995ZM222.67 40.813H224.012V46.5H222.67V45.741C222.318 46.269 221.658 46.632 220.91 46.632C219.667 46.632 218.798 45.719 218.798 44.432V40.813H220.096V44.168C220.096 44.938 220.591 45.488 221.295 45.488C221.999 45.488 222.582 45.015 222.67 44.41V40.813ZM227.592 46.632C226.723 46.632 225.788 46.324 225.106 45.774L225.711 44.839C226.261 45.235 226.899 45.499 227.614 45.499C228.153 45.499 228.527 45.268 228.527 44.916C228.527 44.476 228.032 44.333 227.383 44.157C226.151 43.838 225.37 43.486 225.359 42.474C225.359 41.407 226.239 40.681 227.504 40.681C228.285 40.681 229.066 40.956 229.682 41.363L229.121 42.342C228.582 42.001 227.999 41.825 227.504 41.825C227.031 41.825 226.668 42.012 226.668 42.331C226.668 42.694 226.965 42.804 227.834 43.057C228.791 43.321 229.825 43.651 229.825 44.839C229.825 45.928 228.923 46.632 227.592 46.632Z" fill="#132F3A"/>
<path fill-rule="evenodd" clip-rule="evenodd" d="M141.071 38.2952C141.025 38.2975 140.981 38.3137 140.944 38.3417C140.908 38.3697 140.88 38.4081 140.866 38.4519L139.725 41.8755H136.073C136.025 41.8763 135.979 41.8919 135.941 41.9201C135.903 41.9483 135.875 41.9877 135.86 42.0328C135.845 42.0779 135.845 42.1265 135.859 42.1718C135.873 42.2171 135.901 42.2568 135.939 42.2855L138.906 44.456L137.765 47.999C137.751 48.0446 137.751 48.0936 137.766 48.1389C137.781 48.1843 137.81 48.2237 137.849 48.2517C137.888 48.2797 137.934 48.2948 137.982 48.2949C138.03 48.295 138.077 48.2801 138.116 48.2523L141.083 46.0818L144.05 48.2523C144.089 48.2801 144.135 48.295 144.183 48.2949C144.231 48.2948 144.277 48.2797 144.316 48.2517C144.355 48.2237 144.384 48.1843 144.399 48.1389C144.414 48.0936 144.415 48.0446 144.4 47.999L143.259 44.456L146.226 42.2855C146.264 42.2568 146.292 42.2171 146.306 42.1718C146.32 42.1265 146.32 42.0779 146.305 42.0328C146.291 41.9877 146.262 41.9483 146.224 41.9201C146.186 41.8919 146.14 41.8763 146.092 41.8755H142.441L141.299 38.4519C141.284 38.4044 141.253 38.3633 141.212 38.335C141.171 38.3067 141.121 38.2927 141.071 38.2952Z" fill="#FF3B34"/>
<defs>
<clipPath id="clip0_533_481">
<rect width="108.521" height="29.0436" fill="white" transform="translate(22 20.5039)"/>
</clipPath>
</defs>
</svg>
